# Blender v2.63 (sub 0) OBJ File: ''
# www.blender.org
mtllib untitled.mtl
o Plane.007
v 6.470209 6.338123 8.329646
v -5.471148 6.338123 8.329646
v 6.470209 6.338123 -3.611712
v -5.471148 6.338123 -3.611712
vn 0.000000 1.000000 -0.000000
usemtl collision
s off
f 2//1 1//1 3//1 4//1
o Plane.006
v 5.274010 6.179846 6.098115
v -4.274949 6.179846 6.098115
v 5.274010 6.179846 -3.450844
v -4.274949 6.179846 -3.450844
usemtl Material.004
s off
f 6//1 5//1 7//1 8//1
o Plane.005
v -3.477532 -4.821328 6.925376
v -3.477533 5.943394 6.925376
v -3.477532 -4.821328 -3.839346
v -3.477533 5.943394 -3.839346
vn 1.000000 0.000000 0.000000
usemtl collision
s off
f 10//2 9//2 11//2 12//2
o Plane.004
v -3.493946 -0.698985 2.717623
v -3.493947 6.276648 2.717623
v -3.493946 -0.698985 -4.258010
v -3.493947 6.276648 -4.258010
usemtl Material.002
s off
f 14//2 13//2 15//2 16//2
o Plane.003
v 4.032069 -1.085039 3.948256
v 4.032068 6.313910 3.948256
v 4.032069 -1.085039 -3.450694
v 4.032068 6.313910 -3.450694
usemtl collision
s off
f 18//2 17//2 19//2 20//2
o Plane.002
v 4.035086 -1.879042 4.351524
v 4.035085 6.326444 4.351524
v 4.035086 -1.879042 -3.853962
v 4.035085 6.326444 -3.853962
usemtl Material.003
s off
f 22//2 21//2 23//2 24//2
o Plane.001
v 4.035589 0.572991 3.900831
v -3.268511 0.572991 3.900831
v 4.035589 0.572991 -3.403269
v -3.268511 0.572991 -3.403269
usemtl collision
s off
f 26//1 25//1 27//1 28//1
o Plane
v 4.055150 0.590475 3.920392
v -3.288072 0.590475 3.920392
v 4.055150 0.590475 -3.422830
v -3.288072 0.590475 -3.422830
usemtl Material.001
s off
f 30//1 29//1 31//1 32//1
